<svg id="Layer_1" data-name="Layer 1" xmlns="http://www.w3.org/2000/svg" viewBox="0 0 1346.27 1405.47"><defs><style>.cls-1,.cls-2{fill:#231f20;}.cls-2{stroke:#231f20;stroke-linecap:round;stroke-width:63.89px;}.cls-2,.cls-3{stroke-miterlimit:10;}.cls-3{fill:none;stroke:#995c99;stroke-width:59.33px;}.cls-4{fill:#995c99;}</style></defs><title>logo reg</title><circle class="cls-1" cx="678.09" cy="531.94" r="58.16"/><line class="cls-2" x1="678.09" y1="531.94" x2="678.09" y2="221.08"/><line class="cls-2" x1="914.56" y1="634.93" x2="667.23" y2="530.6"/><ellipse class="cls-3" cx="567.03" cy="516.48" rx="537.36" ry="486.81"/><ellipse class="cls-3" cx="779.24" cy="516.48" rx="537.36" ry="486.81"/><path d="M91.41,1281.92V1188H69.91a5.69,5.69,0,0,1-5.75-5.75,6.34,6.34,0,0,1,2.73-5.15l41.18-40.28q2.73-2.73,5.15-2.73a5.34,5.34,0,0,1,4.09,1.82,6.09,6.09,0,0,1,1.67,4.24v24.23h34.22A11.4,11.4,0,0,1,165,1176.23a11.63,11.63,0,0,1-3.33,8.33,11.23,11.23,0,0,1-8.48,3.48H119v91.45q0,11.81,5.6,15t14.08,3.18a42,42,0,0,0,12.11-1.82c.8-.2,1.67-.4,2.57-.61a16.71,16.71,0,0,1,3.48-.3,10.68,10.68,0,0,1,7.57,3.18,10.28,10.28,0,0,1,3.33,7.72q0,7-7,10.6a59.26,59.26,0,0,1-25.13,5.45Q91.4,1321.89,91.41,1281.92Z"/><path d="M175.89,1128.38a14.87,14.87,0,0,1-4.54-10.9v-1.21a15.51,15.51,0,0,1,15.44-15.44h1.82a15.51,15.51,0,0,1,15.44,15.44v1.21a15.51,15.51,0,0,1-15.44,15.44H186.8A14.87,14.87,0,0,1,175.89,1128.38Zm1.82,188.06a13.16,13.16,0,0,1-3.94-9.69V1176.83a13.68,13.68,0,0,1,3.94-9.84,12.92,12.92,0,0,1,9.69-4.09,13.47,13.47,0,0,1,13.93,13.93v129.91a12.92,12.92,0,0,1-4.09,9.69,13.7,13.7,0,0,1-9.84,3.94A13.17,13.17,0,0,1,177.71,1316.44Z"/><path d="M228.89,1316.44a13.16,13.16,0,0,1-3.94-9.69V1176.83a13.68,13.68,0,0,1,3.94-9.84,12.92,12.92,0,0,1,9.69-4.09,14,14,0,0,1,13.93,13.93v12.42a75.44,75.44,0,0,1,20.44-20q12-7.87,31-7.87,17,0,29.07,9.08a50.74,50.74,0,0,1,17.26,22.11q18.77-31.19,55.72-31.19,17,0,28.31,8.48a50.6,50.6,0,0,1,16.81,21.8,72.9,72.9,0,0,1,5.45,27.86v87.21a12.92,12.92,0,0,1-4.09,9.69,13.7,13.7,0,0,1-9.84,3.94,13.45,13.45,0,0,1-13.63-13.63V1225q0-19.68-7-28.92t-23.92-9.24q-15.44,0-25.59,8a77.63,77.63,0,0,0-18,21v90.85a12.92,12.92,0,0,1-4.09,9.69,13.7,13.7,0,0,1-9.84,3.94A13.45,13.45,0,0,1,327,1306.75V1225q0-19.68-7-28.92t-23.92-9.24q-15.44,0-25.59,8a77.63,77.63,0,0,0-18,21v90.85a12.92,12.92,0,0,1-4.09,9.69,13.7,13.7,0,0,1-9.84,3.94A13.17,13.17,0,0,1,228.89,1316.44Z"/><path d="M490.08,1300.84q-20.75-21-20.74-59.2a98.65,98.65,0,0,1,7.87-39.67,67.43,67.43,0,0,1,24.23-29.37q16.35-11.2,40.28-11.2,22.41,0,38.76,10.45a67.58,67.58,0,0,1,24.83,27.86,85.69,85.69,0,0,1,8.48,38,13.23,13.23,0,0,1-13.93,13.63H497.19q2.42,21.2,15.75,33t37.25,11.81a90.88,90.88,0,0,0,22.26-2.42,92.33,92.33,0,0,0,18.62-7,12.61,12.61,0,0,1,13.93,2.12,11,11,0,0,1,3.63,8.48q0,6.66-7.87,11.2a109.51,109.51,0,0,1-23.32,10q-11.51,3.33-29.68,3.33Q510.81,1321.89,490.08,1300.84Zm96.45-71.92q-.91-14.83-7.72-24.83A41.71,41.71,0,0,0,562,1189.4a46.2,46.2,0,0,0-40.58,0,40.66,40.66,0,0,0-16.66,14.69q-6.66,10-7.57,24.83Z"/><path class="cls-4" d="M620.74,1308.26a11.57,11.57,0,0,1-5.15-10,12.14,12.14,0,0,1,3.33-8.48,11,11,0,0,1,8.48-3.63,13.38,13.38,0,0,1,5.45,1.21,121.75,121.75,0,0,0,19.38,6.66,89.87,89.87,0,0,0,21.8,2.42q33.61,0,33.61-21.5,0-7-7.72-10.6t-25.29-8.18a228,228,0,0,1-29.53-8.78,51.86,51.86,0,0,1-20-13.78q-8.33-9.23-8.33-24.38,0-21.19,15.29-34.52t43.76-13.32a126.34,126.34,0,0,1,43.91,7.57,11.37,11.37,0,0,1,6.51,4.54,12.19,12.19,0,0,1,2.27,7,11.88,11.88,0,0,1-3.48,8.48,11.48,11.48,0,0,1-8.63,3.63,16.8,16.8,0,0,1-3.94-.61,116.09,116.09,0,0,0-34.52-5.45q-16.35,0-25.59,5.91t-9.24,15.29q0,9.08,8.48,13.32t26.35,8.18a253.5,253.5,0,0,1,29.07,8.93,48.14,48.14,0,0,1,19.23,13.78q8,9.39,8,25.13,0,19.38-15.29,32.1t-43.15,12.72Q645.57,1321.89,620.74,1308.26Z"/><path class="cls-4" d="M751,1316.44a13.16,13.16,0,0,1-3.94-9.69V1110.21a13.68,13.68,0,0,1,3.94-9.84,12.92,12.92,0,0,1,9.69-4.09,14,14,0,0,1,13.93,13.93v79A100.61,100.61,0,0,1,799.41,1169q13.32-7.57,31.49-7.57,16.65,0,28.92,7.87a51.24,51.24,0,0,1,18.78,21.5,68.66,68.66,0,0,1,6.51,30v86a12.92,12.92,0,0,1-4.09,9.69,13.7,13.7,0,0,1-9.84,3.94,13.45,13.45,0,0,1-13.63-13.63v-83q0-36.94-33.31-36.94a48.19,48.19,0,0,0-27.1,7.87,98.12,98.12,0,0,0-22.56,21.2v90.85a12.92,12.92,0,0,1-4.09,9.69,13.7,13.7,0,0,1-9.84,3.94A13.18,13.18,0,0,1,751,1316.44Z"/><path class="cls-4" d="M921.9,1316.44a43,43,0,0,1-18-15.9,43.79,43.79,0,0,1-6.66-24.08q0-22.41,17.72-35.73t51.93-13.32h36.64V1225q0-20-9.84-28.77t-30.74-8.78a103.18,103.18,0,0,0-20.44,1.82,171.41,171.41,0,0,0-19.83,5.45,16.89,16.89,0,0,1-3.94.61,10.75,10.75,0,0,1-7.87-3.33,11.1,11.1,0,0,1-3.33-8.18q0-8.18,7.87-11.51a133.17,133.17,0,0,1,52.39-10.9q20.9,0,35.28,8.48t21.2,22a63.85,63.85,0,0,1,6.81,29.22v85.7a12.92,12.92,0,0,1-4.09,9.69,13.7,13.7,0,0,1-9.84,3.94,13.45,13.45,0,0,1-13.63-13.63v-7.87q-22.41,23-56.93,23A56.27,56.27,0,0,1,921.9,1316.44Zm60.72-25.29a71.51,71.51,0,0,0,20.9-16.2v-25.44h-33q-45.73,0-45.73,23.92,0,10.9,7.42,17.56t24.68,6.66A54.73,54.73,0,0,0,982.62,1291.15Z"/><path class="cls-4" d="M1057.11,1316.44a13.16,13.16,0,0,1-3.94-9.69V1176.83a13.68,13.68,0,0,1,3.94-9.84,12.92,12.92,0,0,1,9.69-4.09,14,14,0,0,1,13.93,13.93v13q21.19-28.46,47.54-28.47h1.51a12.7,12.7,0,0,1,9.54,3.94,13.46,13.46,0,0,1,3.79,9.69,12.2,12.2,0,0,1-3.94,9.39,14.16,14.16,0,0,1-10,3.63h-1.51a51.68,51.68,0,0,0-26.65,7.12,61.39,61.39,0,0,0-20.29,19.53v92.06a12.92,12.92,0,0,1-4.09,9.69,13.7,13.7,0,0,1-9.84,3.94A13.18,13.18,0,0,1,1057.11,1316.44Z"/><path class="cls-4" d="M1151.74,1300.84q-20.75-21-20.74-59.2a98.65,98.65,0,0,1,7.87-39.67,67.43,67.43,0,0,1,24.23-29.37q16.35-11.2,40.28-11.2,22.41,0,38.76,10.45A67.58,67.58,0,0,1,1267,1199.7a85.69,85.69,0,0,1,8.48,38,13.23,13.23,0,0,1-13.93,13.63H1158.86q2.42,21.2,15.75,33t37.25,11.81a90.88,90.88,0,0,0,22.26-2.42,92.33,92.33,0,0,0,18.62-7,12.61,12.61,0,0,1,13.93,2.12,11,11,0,0,1,3.63,8.48q0,6.66-7.87,11.2a109.51,109.51,0,0,1-23.32,10q-11.51,3.33-29.68,3.33Q1172.48,1321.89,1151.74,1300.84Zm96.45-71.92q-.91-14.83-7.72-24.83a41.71,41.71,0,0,0-16.81-14.69,46.2,46.2,0,0,0-40.58,0,40.67,40.67,0,0,0-16.66,14.69q-6.66,10-7.57,24.83Z"/></svg>